<?xml version="1.0" standalone="no"?>
<!DOCTYPE svg PUBLIC "-//W3C//DTD SVG 20010904//EN"
 "http://www.w3.org/TR/2001/REC-SVG-20010904/DTD/svg10.dtd">
<svg version="1.0" xmlns="http://www.w3.org/2000/svg"
 width="1244.000000pt" height="1280.000000pt" viewBox="0 0 1244.000000 1280.000000"
 preserveAspectRatio="xMidYMid meet">
<metadata>
Created by potrace 1.15, written by Peter Selinger 2001-2017
</metadata>
<g transform="translate(0.000000,1280.000000) scale(0.100000,-0.100000)"
fill="#000000" stroke="none">
<path d="M11025 12774 c-48 -32 -61 -47 -146 -171 -89 -131 -94 -131 -234 -19
-77 62 -175 116 -211 116 -37 0 -207 -63 -270 -100 -83 -49 -195 -165 -233
-241 -25 -49 -31 -75 -31 -124 0 -104 47 -229 116 -305 l35 -39 -43 -5 c-24
-3 -106 -13 -183 -22 -339 -38 -609 -121 -807 -249 -87 -57 -229 -193 -302
-290 -195 -258 -350 -626 -485 -1150 -9 -34 -19 -44 -63 -69 -99 -54 -230
-150 -308 -223 l-77 -73 -7 56 c-7 64 -28 109 -55 124 -31 16 -96 12 -151 -10
-28 -11 -53 -20 -55 -20 -2 0 21 39 51 88 75 117 118 212 145 313 20 72 23
110 23 269 1 166 -1 193 -22 258 -42 133 -137 203 -255 188 -137 -19 -444
-184 -564 -304 -143 -143 -326 -420 -612 -927 l-62 -110 6 70 c22 259 240 799
435 1077 79 114 293 331 414 421 49 36 159 107 245 158 292 174 299 179 509
402 105 113 192 208 192 211 0 9 -154 64 -223 80 -589 137 -1229 -205 -1689
-900 -40 -61 -79 -120 -85 -130 -7 -10 -6 -1 3 21 106 260 304 956 304 1066 0
36 -20 69 -41 69 -57 0 -299 -208 -443 -380 -129 -153 -212 -303 -333 -600
-328 -802 -474 -1704 -435 -2687 13 -311 29 -523 57 -719 8 -59 13 -109 11
-111 -2 -3 -40 5 -84 17 l-79 21 -7 162 c-8 189 -29 391 -52 503 -9 43 -56
185 -105 316 -83 221 -153 391 -397 968 -131 309 -126 292 -66 248 114 -83
242 -128 364 -128 159 0 269 64 331 194 51 107 63 234 27 288 -9 13 -75 54
-147 92 -72 39 -131 73 -131 77 0 4 100 57 223 119 122 62 224 114 226 116 2
2 -27 34 -65 70 -100 94 -131 106 -289 111 -198 6 -213 13 -117 56 80 36 229
79 443 127 101 23 185 43 186 44 7 6 -278 166 -328 184 -105 39 -209 55 -392
61 l-177 6 67 90 c37 50 149 173 250 275 101 102 183 186 183 186 0 1 -37 0
-82 -2 -68 -2 -116 -13 -263 -59 -99 -31 -197 -63 -219 -71 -21 -8 -40 -13
-42 -11 -18 17 112 233 231 385 53 68 94 126 91 129 -3 3 -51 0 -108 -7 -289
-34 -393 -82 -618 -289 -49 -44 -92 -81 -96 -81 -19 0 8 234 46 404 22 99 38
181 37 183 -6 5 -213 -128 -262 -169 -68 -57 -135 -136 -208 -245 -34 -51 -65
-92 -68 -93 -16 0 -34 147 -34 277 0 79 -2 143 -4 143 -2 0 -178 -131 -392
-291 -235 -176 -412 -316 -448 -354 -81 -87 -116 -161 -116 -245 0 -36 3 -74
7 -85 8 -20 4 -21 -115 -22 -140 -2 -249 -25 -331 -72 -64 -36 -71 -64 -27
-114 78 -88 216 -154 518 -248 216 -67 362 -126 399 -160 29 -28 31 -65 4 -79
-25 -14 -58 -9 -312 41 -159 31 -220 39 -310 39 -243 0 -331 -37 -330 -139 1
-60 33 -111 121 -192 97 -90 176 -140 235 -146 l44 -5 -39 -56 c-51 -72 -75
-139 -105 -290 -44 -223 -100 -332 -273 -531 -136 -156 -151 -201 -110 -323
42 -124 148 -239 287 -309 89 -46 163 -50 254 -16 l66 25 59 -24 c32 -13 65
-24 73 -24 14 -1 -47 -62 -95 -95 -11 -7 -85 -25 -165 -39 -538 -95 -1018
-296 -1313 -549 -466 -399 -797 -1023 -917 -1730 -71 -417 -97 -1108 -53
-1387 12 -74 33 -174 47 -221 47 -161 193 -472 271 -579 114 -156 386 -353
571 -416 90 -30 207 -50 409 -69 88 -8 164 -15 168 -15 16 0 -40 68 -192 230
-316 338 -424 522 -516 875 -32 121 -51 258 -70 500 l-6 80 78 -150 c120 -228
158 -289 213 -338 58 -52 106 -72 154 -63 50 10 102 74 120 150 l7 29 35 -54
c20 -30 43 -61 53 -69 15 -12 20 -43 29 -175 19 -268 80 -477 166 -572 36 -40
49 -47 79 -47 93 0 149 101 202 363 7 32 10 27 44 -76 20 -61 52 -136 71 -167
47 -79 183 -200 475 -426 287 -223 426 -350 504 -464 43 -62 102 -190 186
-401 90 -228 128 -298 200 -370 59 -60 107 -85 166 -85 13 0 55 -7 94 -15 93
-20 161 -68 235 -166 33 -42 81 -96 107 -119 l48 -44 -42 -126 c-76 -227 -144
-507 -159 -652 -6 -63 -8 -66 -36 -72 -17 -3 -57 -22 -90 -42 -77 -47 -123
-52 -219 -25 -87 24 -188 27 -227 7 -15 -8 -44 -35 -64 -59 -23 -27 -60 -56
-94 -73 -55 -27 -63 -28 -228 -29 -200 -2 -249 -14 -318 -75 -137 -120 -185
-430 -85 -545 l22 -26 77 35 c137 64 211 76 498 82 140 3 293 10 339 15 46 6
85 8 87 6 2 -2 -9 -33 -25 -69 -44 -97 -61 -175 -61 -281 0 -77 21 -242 32
-252 2 -2 55 60 118 137 63 77 147 170 186 206 63 59 82 71 159 97 155 51 236
118 299 244 31 61 61 100 70 90 2 -2 40 -74 86 -159 78 -147 157 -270 182
-286 7 -5 30 13 60 46 l47 53 7 -41 6 -40 46 35 c60 46 159 94 257 126 81 26
195 57 212 57 6 0 8 -43 5 -105 -6 -140 7 -175 102 -270 39 -39 85 -80 102
-93 l32 -22 14 23 c8 12 55 96 104 186 127 234 219 326 338 338 40 4 42 2 78
-50 40 -59 94 -93 134 -83 36 9 87 59 132 129 36 55 43 78 67 202 46 251 45
245 65 245 11 0 76 -19 145 -41 127 -42 240 -102 389 -207 33 -23 61 -40 64
-38 12 13 2 247 -13 306 -52 201 -199 357 -439 466 -125 57 -127 59 -105 74
13 8 46 34 74 57 27 24 73 55 100 69 28 15 89 53 136 85 101 67 84 74 175 -66
67 -102 96 -133 209 -224 89 -72 156 -106 234 -121 35 -6 65 -20 87 -40 64
-56 79 -59 235 -57 130 2 150 -1 201 -21 77 -31 168 -93 250 -170 l66 -63 8
58 c18 130 2 276 -38 356 -11 22 -18 40 -16 41 2 1 26 15 53 31 28 15 88 56
135 89 113 82 106 79 144 65 l33 -12 69 73 c68 72 127 109 172 110 72 0 179
-96 363 -327 71 -89 149 -176 174 -194 77 -55 125 -143 145 -267 l12 -74 37 7
c181 31 268 120 264 270 -1 59 -39 180 -66 213 -10 13 -8 14 13 8 14 -4 61
-17 105 -28 44 -11 111 -29 150 -41 102 -32 115 -57 146 -274 7 -49 16 -83 23
-83 6 1 54 24 106 53 90 50 97 56 125 112 28 56 30 68 33 195 4 118 1 143 -18
200 -63 190 -196 291 -526 403 -185 63 -237 88 -354 168 -130 89 -153 117
-195 239 -20 58 -46 121 -57 140 -14 23 -35 113 -64 270 -24 129 -61 305 -82
390 l-40 155 85 79 c112 105 173 187 239 321 85 175 124 335 146 605 l13 145
43 39 c38 35 46 38 63 28 16 -11 24 -7 58 27 21 21 51 59 65 84 15 24 69 81
122 126 314 271 587 539 865 851 353 396 531 629 672 885 184 332 261 697 260
1235 0 492 -65 936 -229 1567 l-55 212 40 54 c54 71 101 176 169 376 l57 166
-3 204 c-2 176 0 217 19 310 12 58 23 107 24 109 2 2 56 -6 121 -17 262 -46
337 -45 434 4 l49 25 94 -65 c53 -36 98 -65 100 -65 14 0 39 106 35 144 -6 52
-84 219 -135 289 -20 29 -75 91 -122 139 l-84 88 39 82 39 83 0 155 c0 132 -3
165 -22 225 -36 115 -128 239 -196 264 -41 16 -93 14 -213 -10 -67 -13 -110
-17 -116 -11 -6 6 0 29 16 61 35 67 59 164 51 201 -9 42 -40 77 -80 90 -54 18
-128 -9 -247 -90 -57 -39 -108 -70 -114 -70 -7 0 -10 52 -10 158 1 149 0 159
-23 196 -26 41 -86 75 -132 76 -14 0 -43 -12 -64 -26z m-2790 -9461 c29 -170
64 -283 119 -388 l43 -81 -58 -27 c-77 -36 -152 -97 -173 -141 -28 -60 -39
-145 -27 -212 12 -62 71 -224 83 -224 3 0 16 15 27 34 40 65 121 111 214 121
l52 7 -25 -22 c-14 -11 -65 -52 -115 -90 -116 -88 -172 -146 -205 -210 l-27
-53 -30 55 c-92 162 -363 338 -521 338 -36 0 -43 3 -38 15 51 134 56 226 17
303 -19 38 -20 43 -5 84 22 64 31 109 49 253 9 71 19 133 23 136 4 3 59 23
122 44 131 43 296 115 385 168 33 19 62 34 63 32 2 -2 14 -66 27 -142z m-3154
-1030 c92 -112 252 -276 337 -344 62 -50 79 -59 113 -59 30 0 39 -4 39 -17 0
-10 9 -171 19 -357 l19 -339 -56 -52 c-32 -28 -89 -80 -127 -115 l-70 -64
-249 -42 -248 -42 -85 -83 c-74 -74 -83 -80 -77 -54 4 17 8 61 8 98 0 65 -3
74 -80 228 -75 148 -79 160 -60 163 163 30 236 66 332 162 56 55 81 90 112
155 22 46 42 96 46 110 l6 25 -83 -13 c-143 -24 -312 0 -406 58 l-34 20 7 87
c3 48 17 132 29 187 l24 100 54 5 c96 10 250 110 317 206 20 29 40 53 43 54 4
0 35 -35 70 -77z m1338 34 c-30 -18 -61 -37 -69 -41 -8 -5 3 10 25 33 29 30
47 41 69 41 28 0 27 -2 -25 -33z m-89 -26 c0 -22 -9 -34 -40 -55 -22 -14 -41
-26 -43 -26 -2 0 -1 16 1 36 3 27 12 40 36 55 41 25 46 24 46 -10z m1473 -450
c40 -19 97 -35 139 -41 100 -12 123 -31 122 -101 0 -30 -4 -76 -8 -104 l-8
-50 -21 30 c-37 52 -121 136 -149 151 -15 8 -41 14 -58 14 -17 0 -64 15 -105
34 -73 34 -114 74 -99 97 12 20 113 3 187 -30z"/>
</g>
</svg>
